<svg id="Layer_1" data-name="Layer 1" xmlns="http://www.w3.org/2000/svg" xmlns:xlink="http://www.w3.org/1999/xlink" viewBox="0 0 262 362.2"><defs><style>.cls-1{fill:#fff;}.cls-15,.cls-2{fill:none;}.cls-3{fill:#d42b1e;}.cls-4{fill:#0032a0;}.cls-5{fill:#b12233;}.cls-6{mask:url(#mask);}.cls-7{mask:url(#mask-2-2);}.cls-8{mask:url(#mask-3);}.cls-9{fill:#3c3b6d;}.cls-10{mask:url(#mask-4-2);}.cls-11{mask:url(#mask-5);}.cls-12{fill:#fff100;}.cls-13{fill:#fbb424;}.cls-14{fill:#fcf6b9;}.cls-15{stroke:#fff;stroke-width:2px;}.cls-16{clip-path:url(#clip-path);}.cls-17{fill:#0038b8;}.cls-18{fill-opacity:0;stroke:#0038b8;}</style><mask id="mask" x="6.08" y="166.46" width="13.84" height="1.96" maskUnits="userSpaceOnUse"><g transform="translate(-7 -1.8)"><g id="mask-2"><polygon id="path-1" class="cls-1" points="13.08 168.25 26.92 168.25 26.92 170.22 13.08 170.22 13.08 168.25"/></g></g></mask><mask id="mask-2-2" x="0" y="178.22" width="26" height="1.96" maskUnits="userSpaceOnUse"><g transform="translate(-7 -1.8)"><g id="mask-4"><polygon id="path-3" class="cls-1" points="7 180.02 33 180.02 33 181.98 7 181.98 7 180.02"/></g></g></mask><mask id="mask-3" x="0" y="166.46" width="13" height="13.73" maskUnits="userSpaceOnUse"><g transform="translate(-7 -1.8)"><g id="mask-6"><polygon id="path-5" class="cls-1" points="7 168.25 20 168.25 20 181.98 7 181.98 7 168.25"/></g></g></mask><mask id="mask-4-2" x="31.32" y="166.46" width="19.37" height="25.74" maskUnits="userSpaceOnUse"><g transform="translate(-7 -1.8)"><g id="mask-10"><polygon id="path-9" class="cls-1" points="38.32 168.26 57.69 168.26 57.69 194 38.32 194 38.32 168.26"/></g></g></mask><mask id="mask-5" x="114.67" y="0" width="56.83" height="57.61" maskUnits="userSpaceOnUse"><g transform="translate(-7 -1.8)"><g id="mask-12"><polygon id="path-11" class="cls-1" points="121.67 1.8 178.51 1.8 178.51 59.41 121.67 59.41 121.67 1.8"/></g></g></mask><clipPath id="clip-path" transform="translate(-7 -1.8)"><circle class="cls-2" cx="76.55" cy="181.13" r="12.87" transform="translate(-113.45 231.81) rotate(-82.03)"/></clipPath></defs><title>original-file</title><polygon id="path-7" class="cls-1" points="28 170.75 31.32 170.75 31.32 187.9 28 187.9 28 170.75"/><g id="sprite"><path id="Combined-Shape" class="cls-3" d="M57.69,172.56a12.75,12.75,0,0,1,0,17.14,13.07,13.07,0,0,1-19.38,0V172.55a13.08,13.08,0,0,1,19.38,0Zm-19.37,0V189.7a12.73,12.73,0,0,1,0-17.15Z" transform="translate(-7 -1.8)"/><polygon id="Shape" class="cls-1" points="8.5 147.2 11.14 152.51 17 153.35 12.75 157.39 13.77 163.2 8.5 160.51 3.23 163.2 4.25 157.39 0 153.35 5.87 152.51 8.5 147.2"/><g id="Social_Facebook-Inverse-Copy" data-name="Social/Facebook-Inverse-Copy"><path id="f" class="cls-4" d="M25.74,126.82h-3c-.35,0-.75.47-.75,1.09v2.18h3.76v3.09H22v9.29H18.43v-9.29H15.21v-3.1h3.22v-1.82a4.46,4.46,0,0,1,4.3-4.73h3v3.29Z" transform="translate(-7 -1.8)"/></g><g id="Social_Twitter-Inverse-Copy" data-name="Social/Twitter-Inverse-Copy"><path id="Fill-11" class="cls-4" d="M58.13,129.38c0,.17,0,.34,0,.52a11.21,11.21,0,0,1-17.25,9.43,7.3,7.3,0,0,0,.94.06,7.87,7.87,0,0,0,4.89-1.69A3.94,3.94,0,0,1,43.05,135a4.53,4.53,0,0,0,.74.07,4,4,0,0,0,1-.14A4,4,0,0,1,41.67,131v0a4,4,0,0,0,1.79.49,3.92,3.92,0,0,1-1.22-5.26,11.16,11.16,0,0,0,8.11,4.11,4.26,4.26,0,0,1-.1-.89,3.95,3.95,0,0,1,6.82-2.7,7.71,7.71,0,0,0,2.5-.95A4,4,0,0,1,57.84,128a8.23,8.23,0,0,0,2.26-.62,7.92,7.92,0,0,1-2,2" transform="translate(-7 -1.8)"/></g><g id="Social_Instagram-Inverse-Copy" data-name="Social/Instagram-Inverse-Copy"><path id="Instagram" class="cls-4" d="M81,122.33c2.9,0,3.26,0,4.4.07a7.94,7.94,0,0,1,2.59.49,5.31,5.31,0,0,1,1.89,1.23A5.45,5.45,0,0,1,91.11,126a7.94,7.94,0,0,1,.49,2.59c.05,1.14.07,1.5.07,4.4s0,3.26-.07,4.4a7.94,7.94,0,0,1-.49,2.59A5.45,5.45,0,0,1,88,143.11a7.94,7.94,0,0,1-2.59.49c-1.14.05-1.5.07-4.4.07s-3.26,0-4.4-.07a7.94,7.94,0,0,1-2.59-.49,5.45,5.45,0,0,1-1.89-1.23A5.31,5.31,0,0,1,70.89,140a7.94,7.94,0,0,1-.49-2.59c-.05-1.14-.07-1.5-.07-4.4s0-3.26.07-4.4a7.94,7.94,0,0,1,.49-2.59,5.31,5.31,0,0,1,1.23-1.89A5.45,5.45,0,0,1,74,122.89a7.94,7.94,0,0,1,2.59-.49C77.74,122.35,78.1,122.33,81,122.33Zm0,1.92c-2.85,0-3.19,0-4.31.07a5.94,5.94,0,0,0-2,.36,3.49,3.49,0,0,0-1.23.8,3.33,3.33,0,0,0-.79,1.23,5.57,5.57,0,0,0-.37,2c0,1.12-.06,1.46-.06,4.31s0,3.19.06,4.31a5.94,5.94,0,0,0,.36,2,3.54,3.54,0,0,0,2,2,5.94,5.94,0,0,0,2,.36c1.13,0,1.46.06,4.31.06s3.19,0,4.31-.06a5.94,5.94,0,0,0,2-.36,3.54,3.54,0,0,0,2-2,5.94,5.94,0,0,0,.36-2c0-1.13.07-1.46.07-4.31s0-3.19-.07-4.31a5.88,5.88,0,0,0-.36-2,3.54,3.54,0,0,0-2-2,5.88,5.88,0,0,0-2-.36C84.19,124.27,83.85,124.25,81,124.25Zm0,3.27A5.48,5.48,0,1,1,75.52,133,5.48,5.48,0,0,1,81,127.52Zm0,9A3.56,3.56,0,1,0,77.44,133,3.57,3.57,0,0,0,81,136.56Zm7-9.25A1.28,1.28,0,1,1,86.69,126,1.28,1.28,0,0,1,88,127.31Z" transform="translate(-7 -1.8)"/></g><g id="Social_Pinterest-Inverse-Copy" data-name="Social/Pinterest-Inverse-Copy"><path id="Pinterest" class="cls-4" d="M111,122.33a10.67,10.67,0,0,0-4.28,20.44,9.39,9.39,0,0,1,.18-2.45c.21-.87,1.38-5.81,1.38-5.81a4.1,4.1,0,0,1-.34-1.69c0-1.58.91-2.76,2-2.76a1.43,1.43,0,0,1,1.44,1.6,23,23,0,0,1-.94,3.78,1.65,1.65,0,0,0,1.68,2.06c2,0,3.39-2.6,3.39-5.67,0-2.34-1.58-4.09-4.44-4.09a5,5,0,0,0-5.25,5.11,3.07,3.07,0,0,0,.7,2.09.52.52,0,0,1,.15.6c0,.19-.17.66-.21.85a.37.37,0,0,1-.54.27c-1.49-.61-2.18-2.24-2.18-4.08,0-3,2.55-6.66,7.62-6.66,4.07,0,6.75,3,6.75,6.11,0,4.18-2.32,7.31-5.75,7.31A3.06,3.06,0,0,1,109.8,138s-.62,2.46-.75,2.93a8.94,8.94,0,0,1-1.07,2.29,10.67,10.67,0,1,0,3-20.9" transform="translate(-7 -1.8)"/></g><path id="in" class="cls-4" d="M145.52,128.35a5.16,5.16,0,0,0-4.21,1.88l-.27-1.34h-3.25v13h3.66v-7.76c0-.41,0-.81.14-.94a2.65,2.65,0,0,1,2.3-1.47c1.5,0,2.45,1.07,2.45,2.81V142H150v-8c0-4-1.9-5.62-4.48-5.62Zm-14.11,13.38h3.66v-13h-3.66Zm1.9-18.73a2,2,0,1,0,0,4c1.49,0,2.31-.8,2.31-2a2.15,2.15,0,0,0-2.31-2Z" transform="translate(-7 -1.8)"/><path id="Youtube" class="cls-4" d="M169.13,136v-6.39l6.21,3.21L169.13,136Zm13.64-7.5a5,5,0,0,0-.91-2.26,3.33,3.33,0,0,0-2.31-1c-3.22-.23-8-.23-8-.23h0s-4.83,0-8.05.23a3.33,3.33,0,0,0-2.31,1,4.86,4.86,0,0,0-.91,2.26,34,34,0,0,0-.23,3.68v1.73a34,34,0,0,0,.23,3.68,4.86,4.86,0,0,0,.91,2.26,3.89,3.89,0,0,0,2.54,1c1.84.18,7.82.23,7.82.23s4.83,0,8.05-.24a3.25,3.25,0,0,0,2.3-1,4.92,4.92,0,0,0,.92-2.26,34,34,0,0,0,.23-3.68v-1.73a34,34,0,0,0-.23-3.68Z" transform="translate(-7 -1.8)"/><path id="G_" data-name="G+" class="cls-4" d="M208.53,129h2.73c0,.88,0,1.78,0,2.67.91,0,1.83,0,2.74,0v2.66c-.91,0-1.83,0-2.74,0,0,.89,0,1.79,0,2.67h-2.73c0-.88,0-1.78,0-2.67-.91,0-1.83,0-2.74,0v-2.66h2.74C208.54,130.78,208.52,129.88,208.53,129ZM188,132.6c.07-4.12,4-7.73,8.36-7.59a8.66,8.66,0,0,1,5.59,2c-.68.73-1.38,1.44-2.12,2.1-1.91-1.25-4.61-1.61-6.52-.16a5,5,0,0,0-.23,8c2.55,2.21,7.36,1.11,8.07-2.27-1.6,0-3.2,0-4.79,0,0-.91,0-1.81,0-2.72,2.67,0,8,0,8,0a8.89,8.89,0,0,1-1.51,6.19c-2.09,2.8-6.27,3.61-9.53,2.41A8,8,0,0,1,188,132.6Z" transform="translate(-7 -1.8)"/><path id="Pinterest-2" data-name="Pinterest" class="cls-4" d="M231,122a11,11,0,0,0-4.41,21.07,9.52,9.52,0,0,1,.18-2.52c.22-.89,1.42-6,1.42-6a4.3,4.3,0,0,1-.35-1.75c0-1.63.94-2.84,2.12-2.84a1.47,1.47,0,0,1,1.48,1.65,23.68,23.68,0,0,1-1,3.9,1.71,1.71,0,0,0,1.74,2.12c2.08,0,3.48-2.67,3.48-5.85,0-2.41-1.62-4.21-4.57-4.21a5.21,5.21,0,0,0-5.42,5.27,3.18,3.18,0,0,0,.73,2.15.56.56,0,0,1,.16.62l-.23.88a.37.37,0,0,1-.55.27c-1.54-.62-2.25-2.31-2.25-4.2,0-3.12,2.63-6.87,7.86-6.87,4.2,0,7,3,7,6.3,0,4.32-2.39,7.54-5.93,7.54a3.15,3.15,0,0,1-2.69-1.37s-.64,2.53-.77,3a9,9,0,0,1-1.11,2.36A11,11,0,1,0,231,122" transform="translate(-7 -1.8)"/><g id="yelp-color"><path id="Yelp" class="cls-4" d="M253.41,132.59a8.22,8.22,0,0,0-.37,3.57,2.78,2.78,0,0,0,.21.92.74.74,0,0,0,.63.45c.17,0,.27,0,3.42-1.09l1.41-.47a.87.87,0,0,0,.6-.86.94.94,0,0,0-.55-1l-1-.42c-3.39-1.46-3.54-1.52-3.71-1.52a.73.73,0,0,0-.65.39ZM261,143.5a21.85,21.85,0,0,0,.07-3.75s0-1.53,0-1.55a.93.93,0,0,0-1.63-.62l-.7.86a27.09,27.09,0,0,0-2.53,3.22.7.7,0,0,0,0,.32.81.81,0,0,0,.19.45,7.15,7.15,0,0,0,4,1.56.75.75,0,0,0,.59-.49Zm5.36-1.21a7.64,7.64,0,0,0,2.65-3.54.8.8,0,0,0-.25-.74,21.5,21.5,0,0,0-3.39-1.23l-1.4-.49a.84.84,0,0,0-1,.32,1,1,0,0,0-.1,1.13l.56.95a27.06,27.06,0,0,0,2.15,3.52.7.7,0,0,0,.75.08Zm-1.63-8.19c3.58-.91,3.72-1,3.86-1.06a.81.81,0,0,0,.31-.72v0a7.86,7.86,0,0,0-2.4-3.7.7.7,0,0,0-.76,0,21.47,21.47,0,0,0-2.15,3l-.88,1.25a.91.91,0,0,0,0,1.06.89.89,0,0,0,1,.45l0,0a11,11,0,0,1,1.07-.29Zm-3.6-3.1c-.06-1.48-.48-8.1-.53-8.41A.79.79,0,0,0,260,122a9.79,9.79,0,0,0-5.06,1.49.86.86,0,0,0-.22.76c.1.22,4.43,7.35,4.43,7.35.64,1.09,1.16.92,1.34.86s.68-.22.62-1.49Z" transform="translate(-7 -1.8)"/></g><g id="Group-90"><path id="Fill-1" class="cls-1" d="M32,185.9a12.7,12.7,0,0,1-1.05,2H9.05a11.9,11.9,0,0,1-1.05-2Z" transform="translate(-7 -1.8)"/><path id="Fill-3" class="cls-5" d="M32.65,183.94a11.85,11.85,0,0,1-.65,2H8a11.85,11.85,0,0,1-.65-2Z" transform="translate(-7 -1.8)"/><path id="Fill-5" class="cls-1" d="M33,182a12.71,12.71,0,0,1-.31,2H7.35A11.6,11.6,0,0,1,7,182Z" transform="translate(-7 -1.8)"/><path id="Fill-7" class="cls-5" d="M31,187.86a12.44,12.44,0,0,1-1.58,2H10.63a12.44,12.44,0,0,1-1.58-2Z" transform="translate(-7 -1.8)"/><path id="Fill-9" class="cls-5" d="M26.92,191.79a13.2,13.2,0,0,1-13.84,0Z" transform="translate(-7 -1.8)"/><path id="Fill-11-2" data-name="Fill-11" class="cls-1" d="M29.37,189.82a13,13,0,0,1-2.45,2H13.08a13,13,0,0,1-2.45-2Z" transform="translate(-7 -1.8)"/><path id="Fill-13" class="cls-1" d="M29.37,172.18H10.63a12.56,12.56,0,0,1,2.45-2H26.92a12.56,12.56,0,0,1,2.45,2" transform="translate(-7 -1.8)"/><g id="Group-17"><g class="cls-6"><path id="Fill-15" class="cls-5" d="M26.92,170.22H13.08a11.4,11.4,0,0,1,1.29-.7l.12-.06.46-.2.2-.08a13,13,0,0,1,4.85-.93h0a13.15,13.15,0,0,1,6.92,2" transform="translate(-7 -1.8)"/></g></g><path id="Fill-18" class="cls-5" d="M31,174.14H9.05a6,6,0,0,1,.36-.52l0,0a12.22,12.22,0,0,1,1.19-1.4H29.37a12.44,12.44,0,0,1,1.58,2" transform="translate(-7 -1.8)"/><path id="Fill-20" class="cls-5" d="M32.65,178.06H7.35a12.17,12.17,0,0,1,.65-2H32a12.17,12.17,0,0,1,.65,2" transform="translate(-7 -1.8)"/><path id="Fill-22" class="cls-1" d="M32,176.1H8c.05-.13.11-.25.17-.38a9.17,9.17,0,0,1,.46-.88c.13-.24.27-.47.42-.7H31a12.7,12.7,0,0,1,1.05,2" transform="translate(-7 -1.8)"/><path id="Fill-24" class="cls-1" d="M33,180H7a1.94,1.94,0,0,1,0-.24q0-.36.09-.72c0-.33.12-.67.2-1h25.3a11.44,11.44,0,0,1,.31,2" transform="translate(-7 -1.8)"/><g id="Group-28"><g class="cls-7"><path id="Fill-26" class="cls-5" d="M33,181c0,.33,0,.66,0,1H7c0-.32,0-.65,0-1s0-.65,0-1H33c0,.33,0,.65,0,1" transform="translate(-7 -1.8)"/></g></g><g id="Group-31"><g class="cls-8"><path id="Fill-29" class="cls-9" d="M20,168.25V182H7c0-.32,0-.65,0-1s0-.66,0-1a1.94,1.94,0,0,1,0-.24q0-.36.09-.72c0-.33.12-.67.2-1a11.85,11.85,0,0,1,.65-2c.05-.13.11-.25.17-.38a9.17,9.17,0,0,1,.46-.88c.13-.24.27-.47.42-.7a6,6,0,0,1,.36-.52l0,0a12.22,12.22,0,0,1,1.19-1.4,12.56,12.56,0,0,1,2.45-2,12.19,12.19,0,0,1,1.28-.7l.13-.06.45-.2.21-.08a13,13,0,0,1,4.85-.93" transform="translate(-7 -1.8)"/></g></g><polygon id="Fill-32" class="cls-1" points="11.35 167.11 11.54 167.66 12.13 167.66 11.65 168 11.83 168.56 11.35 168.21 10.88 168.56 11.06 168 10.58 167.66 11.17 167.66 11.35 167.11"/><path id="Fill-34" class="cls-1" d="M15.5,170.22l0,.13-.19-.13-.29-.21-.29.21-.19.13.05-.13.14-.42-.4-.29.12,0h.39l.07-.2.2-.08.1.28h.58l-.47.34Z" transform="translate(-7 -1.8)"/><polygon id="Fill-36" class="cls-1" points="11.35 169.85 11.54 170.41 12.13 170.41 11.65 170.75 11.83 171.3 11.35 170.96 10.88 171.3 11.06 170.75 10.58 170.41 11.17 170.41 11.35 169.85"/><polygon id="Fill-38" class="cls-1" points="8.06 169.85 8.25 170.41 8.84 170.41 8.36 170.75 8.54 171.3 8.06 170.96 7.58 171.3 7.77 170.75 7.29 170.41 7.88 170.41 8.06 169.85"/><polygon id="Fill-40" class="cls-1" points="4.77 169.85 4.95 170.41 5.55 170.41 5.07 170.75 5.25 171.3 4.77 170.96 4.29 171.3 4.47 170.75 4 170.41 4.59 170.41 4.77 169.85"/><polygon id="Fill-42" class="cls-1" points="11.35 172.6 11.54 173.15 12.13 173.15 11.65 173.49 11.83 174.04 11.35 173.7 10.88 174.04 11.06 173.49 10.58 173.15 11.17 173.15 11.35 172.6"/><polygon id="Fill-44" class="cls-1" points="8.06 172.6 8.25 173.15 8.84 173.15 8.36 173.49 8.54 174.04 8.06 173.7 7.58 174.04 7.77 173.49 7.29 173.15 7.88 173.15 8.06 172.6"/><polygon id="Fill-46" class="cls-1" points="4.77 172.6 4.95 173.15 5.55 173.15 5.07 173.49 5.25 174.04 4.77 173.7 4.29 174.04 4.47 173.49 4 173.15 4.59 173.15 4.77 172.6"/><path id="Fill-48" class="cls-1" d="M8.78,175.29l.18.55-.48-.34-.31.22a9.17,9.17,0,0,1,.46-.88l0,.11h.59Z" transform="translate(-7 -1.8)"/><polygon id="Fill-50" class="cls-1" points="11.35 175.34 11.54 175.89 12.13 175.89 11.65 176.24 11.83 176.78 11.35 176.44 10.88 176.78 11.06 176.24 10.58 175.89 11.17 175.89 11.35 175.34"/><polygon id="Fill-52" class="cls-1" points="8.06 175.34 8.25 175.89 8.84 175.89 8.36 176.24 8.54 176.78 8.06 176.44 7.58 176.78 7.77 176.24 7.29 175.89 7.88 175.89 8.06 175.34"/><polygon id="Fill-54" class="cls-1" points="4.77 175.34 4.95 175.89 5.55 175.89 5.07 176.24 5.25 176.78 4.77 176.44 4.29 176.78 4.47 176.24 4 175.89 4.59 175.89 4.77 175.34"/><polygon id="Fill-56" class="cls-1" points="1.48 175.34 1.66 175.89 2.25 175.89 1.77 176.24 1.96 176.78 1.48 176.44 1 176.78 1.19 176.24 0.71 175.89 1.3 175.89 1.48 175.34"/><polygon id="Fill-58" class="cls-1" points="11.35 178.09 11.54 178.64 12.13 178.64 11.65 178.98 11.83 179.53 11.35 179.19 10.88 179.53 11.06 178.98 10.58 178.64 11.17 178.64 11.35 178.09"/><polygon id="Fill-60" class="cls-1" points="8.06 178.09 8.25 178.64 8.84 178.64 8.36 178.98 8.54 179.53 8.06 179.19 7.58 179.53 7.77 178.98 7.29 178.64 7.88 178.64 8.06 178.09"/><polygon id="Fill-62" class="cls-1" points="4.77 178.09 4.95 178.64 5.55 178.64 5.07 178.98 5.25 179.53 4.77 179.19 4.29 179.53 4.47 178.98 4 178.64 4.59 178.64 4.77 178.09"/><polygon id="Fill-64" class="cls-1" points="1.48 178.09 1.66 178.64 2.25 178.64 1.77 178.98 1.96 179.53 1.48 179.19 1 179.53 1.19 178.98 0.71 178.64 1.3 178.64 1.48 178.09"/><polygon id="Fill-66" class="cls-1" points="9.71 176.71 9.89 177.26 10.48 177.26 10.01 177.6 10.19 178.16 9.71 177.82 9.23 178.16 9.41 177.6 8.94 177.26 9.53 177.26 9.71 176.71"/><polygon id="Fill-68" class="cls-1" points="6.42 176.71 6.6 177.26 7.19 177.26 6.71 177.6 6.9 178.16 6.42 177.82 5.94 178.16 6.12 177.6 5.64 177.26 6.23 177.26 6.42 176.71"/><polygon id="Fill-70" class="cls-1" points="3.13 176.71 3.31 177.26 3.9 177.26 3.42 177.6 3.6 178.16 3.13 177.82 2.65 178.16 2.83 177.6 2.35 177.26 2.94 177.26 3.13 176.71"/><path id="Fill-72" class="cls-1" d="M7.13,179.4l.18.56-.25-.18q0-.36.09-.72h.46Z" transform="translate(-7 -1.8)"/><polygon id="Fill-74" class="cls-1" points="9.71 173.97 9.89 174.52 10.48 174.52 10.01 174.86 10.19 175.41 9.71 175.07 9.23 175.41 9.41 174.86 8.94 174.52 9.53 174.52 9.71 173.97"/><polygon id="Fill-76" class="cls-1" points="6.42 173.97 6.6 174.52 7.19 174.52 6.71 174.86 6.9 175.41 6.42 175.07 5.94 175.41 6.12 174.86 5.64 174.52 6.23 174.52 6.42 173.97"/><polygon id="Fill-78" class="cls-1" points="3.13 173.97 3.31 174.52 3.9 174.52 3.42 174.86 3.6 175.41 3.13 175.07 2.65 175.41 2.83 174.86 2.35 174.52 2.94 174.52 3.13 173.97"/><polygon id="Fill-80" class="cls-1" points="9.71 171.22 9.89 171.78 10.48 171.78 10.01 172.12 10.19 172.67 9.71 172.33 9.23 172.67 9.41 172.12 8.94 171.78 9.53 171.78 9.71 171.22"/><polygon id="Fill-82" class="cls-1" points="6.42 171.22 6.6 171.78 7.19 171.78 6.71 172.12 6.9 172.67 6.42 172.33 5.94 172.67 6.12 172.12 5.64 171.78 6.23 171.78 6.42 171.22"/><path id="Fill-84" class="cls-1" d="M10.49,174.14l.12.33-.47-.33h0l-.46.33.11-.33.07-.22-.42-.3,0,0h.5l.18-.56.19.56h.59l-.48.34Z" transform="translate(-7 -1.8)"/><polygon id="Fill-86" class="cls-1" points="9.71 168.48 9.89 169.03 10.48 169.03 10.01 169.38 10.19 169.93 9.71 169.58 9.23 169.93 9.41 169.38 8.94 169.03 9.53 169.03 9.71 168.48"/><polygon id="Fill-88" class="cls-1" points="6.42 168.48 6.6 169.03 7.19 169.03 6.71 169.38 6.9 169.93 6.42 169.58 5.94 169.93 6.12 169.38 5.64 169.03 6.23 169.03 6.42 168.48"/></g><g id="Group-11"><g id="Group-6"><g class="cls-10"><path id="Fill-4" class="cls-1" d="M57.69,172.56V189.7a13.07,13.07,0,0,1-19.38,0V172.55a13.08,13.08,0,0,1,19.38,0" transform="translate(-7 -1.8)"/></g></g><path id="Fill-9-2" data-name="Fill-9" class="cls-3" d="M51.92,184.11l3.66-3-.85-.36a.25.25,0,0,1-.15-.31l.68-2.41-2.2.47a.26.26,0,0,1-.31-.19l-.24-1-1.78,2a.32.32,0,0,1-.55-.27l.82-4-1.19.61a.36.36,0,0,1-.48-.15L48,173.07l-1.32,2.43a.37.37,0,0,1-.49.15L45,175l.82,4a.31.31,0,0,1-.54.27l-1.79-2-.24,1a.26.26,0,0,1-.3.19l-2.21-.47.68,2.41a.26.26,0,0,1-.14.31l-.86.36,3.66,3a.5.5,0,0,1,.17.56l-.33.93,3.55-.46a.28.28,0,0,1,.32.28l-.11,3.77h.64l-.11-3.77a.28.28,0,0,1,.32-.28l3.56.46-.33-.93a.48.48,0,0,1,.16-.56" transform="translate(-7 -1.8)"/></g><path id="Instagram-2" data-name="Instagram" class="cls-1" d="M31,196c6.52,0,7.33,0,9.9.14a17.78,17.78,0,0,1,5.82,1.12,12.3,12.3,0,0,1,7,7,17.79,17.79,0,0,1,1.12,5.83c.11,2.55.14,3.37.14,9.89s0,7.34-.15,9.89a17.56,17.56,0,0,1-1.11,5.83,12.3,12.3,0,0,1-7,7,17.79,17.79,0,0,1-5.83,1.12c-2.56.11-3.37.14-9.89.14s-7.33,0-9.9-.15a17.55,17.55,0,0,1-5.82-1.11A11.6,11.6,0,0,1,11,240a11.6,11.6,0,0,1-2.77-4.25,17.79,17.79,0,0,1-1.12-5.83C7,227.34,7,226.52,7,220s0-7.34.14-9.9a17.73,17.73,0,0,1,1.12-5.82A11.6,11.6,0,0,1,11,200a11.6,11.6,0,0,1,4.25-2.77,17.54,17.54,0,0,1,5.83-1.12C23.67,196,24.48,196,31,196Zm0,4.32c-6.41,0-7.17,0-9.7.14a13.22,13.22,0,0,0-4.45.83,8,8,0,0,0-4.56,4.56,13,13,0,0,0-.82,4.45c-.12,2.53-.15,3.29-.15,9.7s0,7.17.15,9.7a13,13,0,0,0,.82,4.45,8,8,0,0,0,4.56,4.56,13,13,0,0,0,4.45.82c2.53.12,3.29.15,9.7.15s7.17,0,9.7-.15a13,13,0,0,0,4.45-.82,8,8,0,0,0,4.56-4.56,13,13,0,0,0,.82-4.45c.12-2.53.14-3.29.14-9.7s0-7.17-.14-9.7a13,13,0,0,0-.82-4.45,8,8,0,0,0-4.56-4.56,13.22,13.22,0,0,0-4.45-.83C38.17,200.35,37.41,200.32,31,200.32Zm0,7.36A12.32,12.32,0,1,1,18.68,220,12.31,12.31,0,0,1,31,207.68ZM31,228a8,8,0,1,0-8-8A8,8,0,0,0,31,228Zm15.69-20.81a2.88,2.88,0,1,1-2.88-2.88A2.88,2.88,0,0,1,46.69,207.19Z" transform="translate(-7 -1.8)"/><g id="Page-1-Copy"><g id="Group-3-2" data-name="Group-3"><g class="cls-11"><path id="Fill-1-2" data-name="Fill-1" class="cls-4" d="M178.51,31.57l-3.72-2.93,3-3.67-4.27-2,2.13-4.25-4.6-1,1.14-4.62-4.7,0,.1-4.77L163,9.47l-1-4.68-4.21,2.13-2-4.34-3.64,3-2.85-3.8-2.9,3.77-3.62-3.06-2,4.33-4.2-2.16-1,4.67-4.56-1.16.05,4.77-4.7-.11,1.1,4.65-4.62,1,2.1,4.27-2.42,1.13-.28,1.23A28,28,0,0,0,143,58.67a27.11,27.11,0,0,0,6.26.74A26.33,26.33,0,0,0,154,59a27.75,27.75,0,0,0,22.12-21.2l.29-1.23-1.69-2.09Z" transform="translate(-7 -1.8)"/></g></g><path id="Fill-4-2" data-name="Fill-4" class="cls-12" d="M152.81,45.29A21.58,21.58,0,0,0,160,42.53l-.49.1A36.75,36.75,0,0,1,134.17,37s7.12,10.33,18.64,8.27m5.89-12.94a3.32,3.32,0,0,0,.17-6.48,3.36,3.36,0,0,0-1.3,0,3.32,3.32,0,0,0-.18,6.48,3.06,3.06,0,0,0,1.31,0m-15.78-3.72a3.32,3.32,0,0,0,.17-6.48,3.06,3.06,0,0,0-1.31,0,3.32,3.32,0,0,0-.17,6.48,3.41,3.41,0,0,0,1.31,0m.89-22,3.1,2.62L149.39,6l2.44,3.25L155,6.69l1.68,3.72,3.61-1.82.82,4,3.92-1-.09,4.1,4-.05-1,4,3.95.86-1.83,3.65,3.66,1.73L171.16,29l3.19,2.52L171.13,34l2.56,3.17A25.26,25.26,0,0,1,153.6,56.45a24.69,24.69,0,0,1-10-.29,25.44,25.44,0,0,1-18.73-30.49l3.67-1.7-1.8-3.67,4-.82-.94-4,4,.09,0-4.09,3.91,1,.85-4,3.6,1.85,1.71-3.71" transform="translate(-7 -1.8)"/><g id="Group-18"><polygon id="Fill-6" class="cls-13" points="156.76 12.52 157.94 12.51 157.99 9.84 156.81 10.12 156.76 12.52"/><polygon id="Fill-8" class="cls-13" points="161.94 20.96 163.43 21.66 164.91 18.71 163.24 18.35 161.94 20.96"/><polygon id="Fill-10" class="cls-13" points="165.09 23.31 163.02 25.83 164.41 26.93 166.74 24.09 165.09 23.31"/><polygon id="Fill-12" class="cls-13" points="159.82 16.45 161.23 16.75 161.94 13.88 160.45 13.9 159.82 16.45"/><polygon id="Fill-14" class="cls-13" points="143.69 6.07 143.74 6.03 142.39 4.22 142.34 4.28 143.69 6.07"/><path id="Fill-16" class="cls-13" d="M174.34,31.55l-1.46-1.16L170,32.62l2.55,3.17A25.22,25.22,0,0,1,152.46,55a24.56,24.56,0,0,1-10-.28,24.86,24.86,0,0,1-13.1-7.95,24.88,24.88,0,0,0,24.25,9.64A25.25,25.25,0,0,0,173.68,37.2L171.13,34Z" transform="translate(-7 -1.8)"/></g><path id="Fill-19" class="cls-4" d="M45.12,26.74l-1.89.35L42.75,31c-.11.87,0,1.14.39,1.17a2,2,0,0,1-1.28,1c-.85.16-1.3-.21-1.14-1.56l.5-4.1-1.89.35L39.54,26,45.33,25Z" transform="translate(-7 -1.8)"/><path id="Fill-21" class="cls-4" d="M47.41,27a2.67,2.67,0,0,1,1.41-.83c1.12-.21,1.6.57,1.43,2l-.18,1.44c-.1.87,0,1.14.39,1.17a2,2,0,0,1-1.28,1c-.85.16-1.27-.22-1.11-1.57l.17-1.43c.07-.57-.08-.81-.4-.76s-.61.5-.69,1.16l-.25,2a1,1,0,0,1-.87,1l-1.21.23.75-6.21c.11-.87,0-1.14-.39-1.17a2.09,2.09,0,0,1,1.29-1c.84-.16,1.27.23,1.11,1.57Z" transform="translate(-7 -1.8)"/><path id="Fill-23" class="cls-4" d="M52.71,27.93l.25,0c.37-.07.87-.28.92-.74,0-.26-.11-.37-.31-.33s-.69.41-.86,1.1m-.08.77c.06.56.45.72.95.63A2.94,2.94,0,0,0,55,28.55a1.85,1.85,0,0,1,.09.82A2.47,2.47,0,0,1,53,31.05c-1.83.34-2.6-.69-2.4-2.34a3.94,3.94,0,0,1,3-3.4c1.39-.26,2,.4,1.88,1.47a2.45,2.45,0,0,1-2,1.94,2,2,0,0,1-.9,0" transform="translate(-7 -1.8)"/><path id="Fill-25" class="cls-4" d="M60,28c.89-.17,1.51-1.18,1.66-2.43s-.25-2-1.14-1.86a2.52,2.52,0,0,0-1.65,2.38c-.16,1.25.24,2.07,1.13,1.91m-.22,1.78c-1.95.37-3.24-1.07-3-3.31a5.3,5.3,0,0,1,3.93-4.54c2-.37,3.24,1,3,3.26a5.33,5.33,0,0,1-3.93,4.59" transform="translate(-7 -1.8)"/><path id="Fill-27" class="cls-4" d="M66.26,25.76,66,27.64a1,1,0,0,1-.87,1L64,28.87l.43-3.59c.11-.87,0-1.14-.39-1.17a2.09,2.09,0,0,1,1.29-1c.6-.11,1,.06,1.1.65a2.33,2.33,0,0,1,1.29-1.09c.41-.08.72.14.64.81A4.34,4.34,0,0,1,68,24.68a1.43,1.43,0,0,0-.71,0,1.2,1.2,0,0,0-1,1.12" transform="translate(-7 -1.8)"/><path id="Fill-29-2" data-name="Fill-29" class="cls-4" d="M70.12,19.84c.61-.11,1,.16.92.8a1.37,1.37,0,0,1-1.17,1.18c-.61.12-1-.16-.92-.79A1.38,1.38,0,0,1,70.12,19.84Zm.23,6c-.11.87,0,1.14.39,1.17a2,2,0,0,1-1.29,1c-.84.16-1.27-.22-1.1-1.57l.46-3.79L70,22.41c.53-.1.73.11.66.71Z" transform="translate(-7 -1.8)"/><path id="Fill-31" class="cls-4" d="M74.12,25.21,74.26,24c.08-.63-.14-.9-.54-.83s-.75.57-.84,1.29.13,1.06.66,1a1.59,1.59,0,0,0,.58-.23m-.18,1.37a2.89,2.89,0,0,1-1.25.56,2.47,2.47,0,0,1-.6,0,1.31,1.31,0,0,0-.12.37c0,.37.28.51.66.44a1.74,1.74,0,0,0,1.31-1.4m-2.46.34a2.1,2.1,0,0,1-.62-2.06,3.54,3.54,0,0,1,2.5-3.22,1.54,1.54,0,0,1,1.4.28,1.66,1.66,0,0,1,1.15-.76,1,1,0,0,1,1.1.54c-.44.18-.59.5-.7,1.37l-.25,2.1c-.3,2.42-1.65,4.1-3.39,4.43-1.4.25-1.85-.45-1.74-1.33a3.25,3.25,0,0,1,.55-1.35" transform="translate(-7 -1.8)"/><path id="Fill-33" class="cls-4" d="M78.7,18.24c.61-.11,1,.17.92.8a1.38,1.38,0,0,1-1.16,1.19c-.62.11-1-.17-.93-.8A1.39,1.39,0,0,1,78.7,18.24Zm.23,6c-.11.87,0,1.14.39,1.17a2,2,0,0,1-1.29,1c-.84.16-1.27-.22-1.1-1.57L77.39,21l1.21-.23c.54-.1.73.11.66.72Z" transform="translate(-7 -1.8)"/><path id="Fill-35" class="cls-4" d="M84.81,23.17c-.11.87,0,1.14.39,1.16a2.06,2.06,0,0,1-1.29,1c-.84.16-1.27-.23-1.11-1.57L83,22.3c.07-.57-.09-.82-.41-.76S82,22,81.88,22.7l-.24,2a1,1,0,0,1-.87,1L79.55,26l.44-3.6c.1-.87,0-1.14-.39-1.17a2,2,0,0,1,1.28-1c.56-.11.94,0,1.08.53a2.88,2.88,0,0,1,1.6-1c1.12-.21,1.59.56,1.42,2Z" transform="translate(-7 -1.8)"/><path id="Fill-37" class="cls-4" d="M88.1,22.82l.06-.49-.3,0a.69.69,0,0,0-.57.55c0,.29.13.4.32.37a.62.62,0,0,0,.49-.45m2.4.53a2,2,0,0,1-1.28,1,.85.85,0,0,1-1-.3,2.39,2.39,0,0,1-1.38.74c-1,.19-1.73-.24-1.61-1.29a2.51,2.51,0,0,1,2.27-2.15,5.82,5.82,0,0,1,.77-.09l0-.22c.05-.43-.21-.54-.65-.46A6.6,6.6,0,0,0,86,21.2a1.72,1.72,0,0,1-.05-.63c.1-.86.82-1.43,2.21-1.69s2.31.23,2.15,1.61l-.21,1.71c-.11.87,0,1.12.39,1.15" transform="translate(-7 -1.8)"/><path id="Fill-39" class="cls-4" d="M92.75,21.69c-.11.87,0,1.14.39,1.17a2.08,2.08,0,0,1-1.29,1c-.84.16-1.27-.22-1.11-1.57l.78-6.4,1.22-.23c.53-.1.73.12.66.72Z" transform="translate(-7 -1.8)"/><polygon id="Fill-41" class="cls-14" points="154.8 12.16 157.96 11.39 157.99 9.84 154.5 10.69 154.8 12.16"/><path id="Fill-43" class="cls-14" d="M125.6,27l3.67-1.7-1.8-3.66,3.95-.83-.94-4,4,.09-.05-4.09,3.92,1,.85-4,3.6,1.85L144.54,8l3.1,2.61,2.48-3.23,2.45,3.26,3-2.52L155,6.69l-3.13,2.59L149.39,6l-2.48,3.23-3.1-2.62-1.71,3.71-3.6-1.85-.85,4-3.92-1,.05,4.09-4-.09.95,4-4,.83,1.8,3.66-3.68,1.7a25.62,25.62,0,0,0,2.77,18.51,25.55,25.55,0,0,1-2-17.15" transform="translate(-7 -1.8)"/><polygon id="Fill-45" class="cls-14" points="163.81 23.73 166.14 24.82 166.74 24.09 164.23 22.9 163.81 23.73"/><polygon id="Fill-47" class="cls-14" points="150.37 9.98 153.57 8.36 153.25 6.79 149.74 8.56 150.37 9.98"/><polygon id="Fill-49" class="cls-14" points="158.64 15.29 161.6 15.26 161.94 13.88 158.67 13.92 158.64 15.29"/><polygon id="Fill-51" class="cls-14" points="161.69 19.21 164.36 19.8 164.91 18.71 161.98 18.07 161.69 19.21"/><path id="Fill-53" class="cls-4" d="M93.24,66a15.39,15.39,0,0,0-2.83.27,19.88,19.88,0,0,0-12.63,8.87,9.4,9.4,0,0,0-.68-.88c-2-2.35-5.09-3.54-9-3.54h0a26,26,0,0,0-4.6.46c-3.58.67-7.62,2-10.61,4.5a14.33,14.33,0,0,0-2.46-4A13.7,13.7,0,0,0,46,68.35l.2,0a16.91,16.91,0,0,0,7.5-3.55l0,0a3.43,3.43,0,0,0,2.39,1,3.36,3.36,0,0,0,.63-.06l5.41-1c2.7-.5,6.06-2.21,6.7-7.5l1-8.36c.14-1.17.59-1.74,1.51-1.91A3.08,3.08,0,0,1,72.9,47l.25.07L73,48.67c-.6,4.92.29,8.55,2.65,10.8a7.9,7.9,0,0,0,5.63,2.13,11.23,11.23,0,0,0,2.15-.21,14.49,14.49,0,0,0,6.18-2.9,7.57,7.57,0,0,0,4.72.83L93.48,66h-.24m77.19-10.82a6,6,0,0,0-4.73-2c-10.38,7.16-21.79,4.77-23.17,3.62l.42-3.44c.12-1,.5-4.12-1.46-6.37a6,6,0,0,0-4.73-2,10.2,10.2,0,0,0-1.91.19l-6.45,1.2a3.94,3.94,0,0,0-3.17,3.42L124,60.23h-.25a15.55,15.55,0,0,0-2.83.27,18.6,18.6,0,0,0-9.16,4.78l.75-6.17a11.06,11.06,0,0,0,0-3.15c6.81-1.61,14.42-8,15.71-18.58.8-6.61-1.24-10.11-3.09-11.88-1.62-1.54-4.53-3.19-9.29-2.3l-.63.13c.21-2.65,0-5.9-2.25-8-1.68-1.6-4-2.14-6.91-1.6a12.7,12.7,0,0,0-8.11,6,3.58,3.58,0,0,0,1.44,4.93c0,.37-.06.89-.14,1.6l-.14,1.13a7.94,7.94,0,0,0-2.5.1l-5.41,1a3.52,3.52,0,0,0-2.83,3l-.09.75a7.14,7.14,0,0,0-.77-.88c-1.68-1.6-4-2.14-6.91-1.6A11.38,11.38,0,0,0,76,31.83a6.06,6.06,0,0,0-3.92-.49A10.66,10.66,0,0,0,67.14,34a8.23,8.23,0,0,0-5.7-.71,12.07,12.07,0,0,0-5.77,3.07,12.5,12.5,0,0,0-7.47-.6A20.2,20.2,0,0,0,37.93,41.2c.11-.51.2-1,.26-1.53.45-3.68-.89-5.82-2.09-7-3-2.82-7.62-2.34-10.87-1.73a19.37,19.37,0,0,0-16,16.55c-.54,4.49.87,7.31,2.9,9.13a3.33,3.33,0,0,0-1.32.18,3.52,3.52,0,0,0-2.1,2,21.11,21.11,0,0,0-1.67,5.71c-.43,3.58.9,5.68,2.08,6.82A9.67,9.67,0,0,0,16,73.56l.39,0-4.49,37a4,4,0,0,0,2.64,4.25,25.88,25.88,0,0,0,8.5,1.42,36,36,0,0,0,6.57-.67A28.46,28.46,0,0,0,46.23,106a8.05,8.05,0,0,0,.8,1.07,10.09,10.09,0,0,0,7.91,3.25A16.32,16.32,0,0,0,58,110a17,17,0,0,0,6.77-2.74,8.54,8.54,0,0,0,3.37.65,13.33,13.33,0,0,0,2.35-.23,14.56,14.56,0,0,0,8.11-5,11.74,11.74,0,0,0,6.83,2.11,14.77,14.77,0,0,0,2.7-.26A17.46,17.46,0,0,0,95,101.65a8.45,8.45,0,0,0,3.57.72,13.94,13.94,0,0,0,2.54-.26A14.57,14.57,0,0,0,109.26,97a11.69,11.69,0,0,0,6.63,2,14.94,14.94,0,0,0,2.71-.25,17.43,17.43,0,0,0,6.88-2.89,8.5,8.5,0,0,0,3.58.72,13.7,13.7,0,0,0,2.53-.25,12.57,12.57,0,0,0,3.23-1.13,10,10,0,0,0,2.33,6.76c1.29,1.47,3.72,3.23,8,3.23a20.33,20.33,0,0,0,3.59-.35c11.12-2.07,19.43-12.62,21.16-26.86l2-16.45c.13-1,.51-4.12-1.46-6.37" transform="translate(-7 -1.8)"/><path id="Fill-55" class="cls-12" d="M126.43,72.35a5.28,5.28,0,0,0-2.91-.18c-2.79.52-4.58,3.8-5,7.73s.48,6.2,2.92,5.74c2.13-.4,3.71-2.36,4.11-5.66Zm9.2,8.8c-.56,4.61-.09,6,2.08,6.18a11,11,0,0,1-6.83,5.11c-2.64.49-4.52.06-5.43-1.82a13.13,13.13,0,0,1-7.56,4.24c-6.75,1.26-11.25-3.74-10.14-13s7.09-16.23,13.84-17.48a8.37,8.37,0,0,1,5.72.65l1.8-14.8,6.45-1.2c2.84-.53,3.89.61,3.5,3.8Z" transform="translate(-7 -1.8)"/><path id="Fill-57" class="cls-12" d="M147.46,88.09a9.07,9.07,0,0,1-2.6.15,7.25,7.25,0,0,0-.52,1.82c-.24,2,1.46,2.74,3.49,2.36,3.35-.62,6.54-3.61,7.15-8.62A14.65,14.65,0,0,1,147.46,88.09Zm-6.79-16.76c.56-4.61.08-6-2.08-6.18A11,11,0,0,1,145.41,60c4.47-.83,6.75,1.19,5.89,8.31l-.76,6.21c-.36,3,.47,4.3,2.15,4s3.24-2.61,3.67-6.14l1.7-13.94,6.44-1.2c2.85-.54,3.9.61,3.51,3.79l-2,16.46c-1.56,12.8-8.74,21.71-18,23.43-7.41,1.38-9.78-2.35-9.21-7a16.27,16.27,0,0,1,2.89-7.1c-1.72-1.74-2.33-4.91-1.8-9.23Z" transform="translate(-7 -1.8)"/><path id="Fill-59" class="cls-12" d="M29.85,80.89l-2.57,21.18a5.09,5.09,0,0,0,2.72.1c4.92-.91,8.31-5.49,9.15-12.44,1-7.86-2.24-10.15-7.77-9.12Zm2.83-9.76c12.28-2.29,19,3,17.45,16.05-1.38,11.33-8.39,22.1-21.23,24.49-5.08,1-8.89.82-13.13-.62l4.57-37.63Z" transform="translate(-7 -1.8)"/><path id="Fill-61" class="cls-12" d="M63.84,95.91l.31-2.57a7.87,7.87,0,0,0-1.55.13,3.56,3.56,0,0,0-3,2.9c-.18,1.53.69,2.09,1.65,1.91a3.14,3.14,0,0,0,2.63-2.37M76.6,98.7a11,11,0,0,1-6.83,5.11c-2.43.46-4.17,0-5.16-1.59a12.62,12.62,0,0,1-7.32,3.92c-5.39,1-9.23-1.29-8.56-6.81.65-5.3,4.34-10,12-11.42a28.19,28.19,0,0,1,4.12-.43l.15-1.2c.27-2.27-1.15-2.85-3.48-2.41a37.19,37.19,0,0,0-8.81,3.48,8.54,8.54,0,0,1-.24-3.29c.55-4.56,4.34-7.6,11.7-9,8-1.5,12.31,1.21,11.42,8.5l-1.1,9c-.56,4.61-.07,5.91,2.1,6.06" transform="translate(-7 -1.8)"/><path id="Fill-63" class="cls-12" d="M96,78.12a5.25,5.25,0,0,0-2.9-.18c-2.79.52-4.58,3.8-5.06,7.73s.49,6.19,2.92,5.74c2.14-.4,3.72-2.36,4.12-5.66Zm9.2,8.8c-.56,4.61-.08,6,2.08,6.18a11,11,0,0,1-6.82,5.11c-2.64.49-4.52.06-5.44-1.83a13,13,0,0,1-7.56,4.25c-6.75,1.26-11.25-3.74-10.13-13s7.08-16.23,13.83-17.49a8.45,8.45,0,0,1,5.73.66L98.64,56l6.44-1.2c2.85-.53,3.9.61,3.51,3.8Z" transform="translate(-7 -1.8)"/><g id="Group-99"><path id="Fill-65" class="cls-13" d="M124.23,89.37a13.12,13.12,0,0,1-7.57,4.24,8.27,8.27,0,0,1-6.87-1.42c1.82,2.32,4.67,3.3,8.1,2.66a13.2,13.2,0,0,0,7.46-4.13,3.41,3.41,0,0,1-1.12-1.35" transform="translate(-7 -1.8)"/><path id="Fill-67" class="cls-13" d="M118.79,84.31a8.64,8.64,0,0,1-.32-4.42c.47-3.93,2.26-7.21,5-7.73a6.76,6.76,0,0,1,1.57-.11l.12-1a5.29,5.29,0,0,0-2.91-.18c-2.79.52-4.58,3.8-5,7.73-.39,3.11.13,5.14,1.54,5.66" transform="translate(-7 -1.8)"/><path id="Fill-69" class="cls-13" d="M136.1,86.69a10.92,10.92,0,0,1-6.44,4.5,6.08,6.08,0,0,1-4.07-.32c1,1.66,2.78,2,5.29,1.56a11,11,0,0,0,6.83-5.11,2.31,2.31,0,0,1-1.61-.63" transform="translate(-7 -1.8)"/><path id="Fill-71" class="cls-13" d="M137.72,49.06a5.84,5.84,0,0,1,.12,2.55L134.4,79.9c-.47,3.95-.19,5.55,1.25,6a12.16,12.16,0,0,1,0-4.79l3.44-28.29c.26-2.18-.15-3.41-1.35-3.79" transform="translate(-7 -1.8)"/><path id="Fill-73" class="cls-13" d="M144.41,91.08a2.53,2.53,0,0,1-.07-1,6.75,6.75,0,0,1,.52-1.82,9.45,9.45,0,0,0,2.6-.15A13.31,13.31,0,0,0,153,85.51a11.91,11.91,0,0,0,.74-3,14.67,14.67,0,0,1-7.52,4.3,9.47,9.47,0,0,1-2.6.15,6.75,6.75,0,0,0-.52,1.82,1.94,1.94,0,0,0,1.29,2.25" transform="translate(-7 -1.8)"/><path id="Fill-75" class="cls-13" d="M166.66,57.28a5.66,5.66,0,0,1,.12,2.55l-2,16.45c-1.56,12.81-8.74,21.71-18,23.43-3.3.62-5.6.22-7.09-.83,1.29,1.91,3.91,2.89,8.31,2.07,9.24-1.72,16.43-10.62,18-23.43l2-16.45c.26-2.19-.15-3.41-1.35-3.79" transform="translate(-7 -1.8)"/><path id="Fill-77" class="cls-13" d="M150.08,67.11l-.76,6.21c-.3,2.48.21,3.79,1.33,4a6.86,6.86,0,0,1-.11-2.77l.76-6.21c.54-4.48-.16-6.94-1.88-7.94.79,1.34,1,3.51.66,6.7" transform="translate(-7 -1.8)"/><path id="Fill-79" class="cls-13" d="M46.45,73.28c2.25,2.76,3.15,7,2.45,12.66-1.37,11.33-8.39,22.1-21.23,24.49a24.69,24.69,0,0,1-11.8-.21l-.1.84c4.24,1.43,8.05,1.56,13.12.61,12.85-2.39,19.86-13.16,21.24-24.48.8-6.63-.55-11.25-3.68-13.91" transform="translate(-7 -1.8)"/><path id="Fill-81" class="cls-13" d="M27.41,101.05l2.45-20.16,1.52-.28c2.33-.44,4.24-.28,5.61.64-1.3-2-3.69-2.47-6.83-1.88l-1.53.28-2.57,21.18a3.64,3.64,0,0,0,1.35.22" transform="translate(-7 -1.8)"/><path id="Fill-83" class="cls-13" d="M60.3,82.63a34.3,34.3,0,0,0-7.86,3,9.82,9.82,0,0,0,.28,1.71,37.19,37.19,0,0,1,8.81-3.48,5.14,5.14,0,0,1,2.21,0c-.31-1.27-1.58-1.56-3.44-1.22" transform="translate(-7 -1.8)"/><path id="Fill-85" class="cls-13" d="M74.38,82.35l-1.1,9.05c-.48,3.92-.19,5.45,1.23,5.91a12,12,0,0,1,0-4.67l1.1-9c.44-3.61-.39-6.09-2.32-7.5,1,1.46,1.43,3.54,1.1,6.26" transform="translate(-7 -1.8)"/><path id="Fill-87" class="cls-13" d="M75,98.09a10.91,10.91,0,0,1-6.43,4.49c-2.44.45-4.17,0-5.17-1.6a12.53,12.53,0,0,1-7.32,3.92c-2.63.49-4.89.19-6.44-.89,1.4,2,4.21,2.77,7.66,2.13a12.56,12.56,0,0,0,7.33-3.92c1,1.59,2.73,2,5.16,1.6a11,11,0,0,0,6.82-5.11A2.42,2.42,0,0,1,75,98.09" transform="translate(-7 -1.8)"/><path id="Fill-89" class="cls-13" d="M59.57,97.07a2.69,2.69,0,0,1,0-.7,3.57,3.57,0,0,1,3-2.9l.16,0,.17-1.33a7.38,7.38,0,0,0-1.56.12,3.56,3.56,0,0,0-3,2.9c-.16,1.3.45,1.9,1.23,1.94" transform="translate(-7 -1.8)"/><path id="Fill-91" class="cls-13" d="M88.31,90.08A8.9,8.9,0,0,1,88,85.65c.48-3.92,2.27-7.2,5.06-7.72a6.18,6.18,0,0,1,1.56-.11l.12-.95a5.28,5.28,0,0,0-2.91-.18c-2.79.52-4.57,3.8-5,7.72-.38,3.12.14,5.14,1.54,5.67" transform="translate(-7 -1.8)"/><path id="Fill-93" class="cls-13" d="M107.25,54.83a6,6,0,0,1,.12,2.55l-3.44,28.29c-.48,4-.2,5.55,1.25,6a11.86,11.86,0,0,1,0-4.78l3.44-28.3c.27-2.18-.14-3.4-1.34-3.78" transform="translate(-7 -1.8)"/><path id="Fill-95" class="cls-13" d="M93.75,95.13a13.09,13.09,0,0,1-7.56,4.25A8.29,8.29,0,0,1,79.31,98c1.83,2.32,4.68,3.3,8.11,2.66a13.1,13.1,0,0,0,7.45-4.14,3.35,3.35,0,0,1-1.12-1.35" transform="translate(-7 -1.8)"/><path id="Fill-97" class="cls-13" d="M105.63,92.46A11,11,0,0,1,99.19,97a6,6,0,0,1-4.07-.33c.95,1.67,2.78,2,5.29,1.57a11,11,0,0,0,6.82-5.11,2.3,2.3,0,0,1-1.6-.63" transform="translate(-7 -1.8)"/></g><path id="Fill-100" class="cls-14" d="M122.58,86.89c2.14-.39,3.71-2.36,4.11-5.66l.93-7.63a4.27,4.27,0,0,0-1.31-.28L125.5,80c-.4,3.3-2,5.26-4.11,5.66a2.64,2.64,0,0,1-1.42-.09,2.15,2.15,0,0,0,2.61,1.34" transform="translate(-7 -1.8)"/><path id="Fill-102" class="cls-14" d="M109,83.15c1.13-9.28,7.08-16.23,13.83-17.49a8.34,8.34,0,0,1,5.73.66l1.79-14.8,6.45-1.2a4.33,4.33,0,0,1,2.2,0c-.41-1.24-1.5-1.63-3.39-1.28l-6.45,1.2-1.8,14.8a8.37,8.37,0,0,0-5.72-.65c-6.76,1.25-12.71,8.21-13.84,17.48-.65,5.42.63,9.37,3.16,11.47-1.72-2.26-2.5-5.74-2-10.21" transform="translate(-7 -1.8)"/><path id="Fill-104" class="cls-14" d="M151.85,78.53a1.62,1.62,0,0,0,2,1.25c1.68-.32,3.25-2.61,3.67-6.14l1.7-14,6.44-1.2a4.44,4.44,0,0,1,2.2,0c-.41-1.23-1.5-1.62-3.39-1.27l-6.45,1.2-1.69,14c-.43,3.53-2,5.82-3.68,6.14a2.36,2.36,0,0,1-.84,0" transform="translate(-7 -1.8)"/><path id="Fill-106" class="cls-14" d="M149,93.65c3.35-.63,6.54-3.61,7.15-8.63a20,20,0,0,1-1.92,1.69,8.81,8.81,0,0,1-6.43,5.69,4.3,4.3,0,0,1-2.23-.12c.35,1.24,1.78,1.67,3.43,1.37" transform="translate(-7 -1.8)"/><path id="Fill-108" class="cls-14" d="M140.19,65.75a10.91,10.91,0,0,1,6.42-4.48,5.78,5.78,0,0,1,4.06.39c-1-1.68-2.77-2.1-5.25-1.64a10.92,10.92,0,0,0-6.82,5.11,2.29,2.29,0,0,1,1.59.62" transform="translate(-7 -1.8)"/><path id="Fill-110" class="cls-14" d="M140,95.16a16.26,16.26,0,0,1,2.89-7.11c-1.72-1.74-2.33-4.9-1.8-9.23l.76-6.26c.47-3.91.2-5.52-1.22-6a11.83,11.83,0,0,1,0,4.76l-.76,6.26c-.52,4.33.08,7.5,1.81,9.23a16.28,16.28,0,0,0-2.9,7.11c-.31,2.56.27,4.83,2.07,6.14a7.27,7.27,0,0,1-.87-4.89" transform="translate(-7 -1.8)"/><path id="Fill-112" class="cls-14" d="M31.19,103.44c4.93-.92,8.31-5.5,9.16-12.45.54-4.5-.27-7.17-2.11-8.44,1,1.5,1.32,3.84.91,7.19-.84,7-4.23,11.53-9.15,12.44a7.15,7.15,0,0,1-1.4.13l-.12,1a5.15,5.15,0,0,0,2.71.11" transform="translate(-7 -1.8)"/><path id="Fill-114" class="cls-14" d="M21.54,74.69l12.33-2.3C40,71.25,44.71,72,47.74,74.62c-2.89-3.63-8.08-4.78-15.06-3.48l-12.34,2.3-4.57,37.63,1.3.4Z" transform="translate(-7 -1.8)"/><path id="Fill-116" class="cls-14" d="M65.36,94.57a7.52,7.52,0,0,0-1.36.09l-.14,1.22a3.18,3.18,0,0,1-2.62,2.38,1.79,1.79,0,0,1-.46,0,1.31,1.31,0,0,0,1.65,1.23,3.15,3.15,0,0,0,2.62-2.38Z" transform="translate(-7 -1.8)"/><path id="Fill-118" class="cls-14" d="M53.65,86.87a8.37,8.37,0,0,1,0-1.59c.55-4.56,4.35-7.6,11.71-9,4.1-.76,7.21-.43,9.17,1.06-1.72-2.52-5.3-3.26-10.37-2.31-7.36,1.37-11.15,4.42-11.71,9a8.76,8.76,0,0,0,.25,3.29l.91-.45" transform="translate(-7 -1.8)"/><path id="Fill-120" class="cls-14" d="M50,100.55c.64-5.29,4.34-10,12-11.41a28.28,28.28,0,0,1,4.12-.44l.15-1.19c.17-1.4-.3-2.15-1.23-2.43a3.49,3.49,0,0,1,0,1.18l-.14,1.19a28.13,28.13,0,0,0-4.12.44C53.09,89.31,49.4,94,48.75,99.3c-.33,2.79.48,4.75,2,5.88a6.75,6.75,0,0,1-.85-4.63" transform="translate(-7 -1.8)"/><path id="Fill-122" class="cls-14" d="M92.1,92.66c2.13-.4,3.71-2.36,4.11-5.66l.93-7.63a4.28,4.28,0,0,0-1.31-.29L95,85.75c-.4,3.3-2,5.26-4.11,5.66a2.54,2.54,0,0,1-1.42-.1,2.15,2.15,0,0,0,2.61,1.35" transform="translate(-7 -1.8)"/><path id="Fill-124" class="cls-14" d="M78.47,88.91c1.12-9.28,7.08-16.23,13.83-17.49a8.43,8.43,0,0,1,5.72.66l1.8-14.8,6.45-1.2a4.45,4.45,0,0,1,2.2,0c-.41-1.23-1.51-1.62-3.4-1.27L98.63,56l-1.8,14.8a8.45,8.45,0,0,0-5.73-.66c-6.75,1.26-12.7,8.21-13.83,17.49-.65,5.41.63,9.37,3.16,11.46-1.72-2.25-2.51-5.73-2-10.21" transform="translate(-7 -1.8)"/><path id="Fill-126" class="cls-12" d="M20.31,69.54c-7.19,1.34-10.34-.17-9.8-4.61a17.17,17.17,0,0,1,1.41-4.74,15,15,0,0,0,9.25,1.58c2-.38,3.52-1.21,3.69-2.59.53-4.4-13.49-.29-12.16-11.22A15.82,15.82,0,0,1,25.82,34.45c6.52-1.21,9.4.35,8.87,4.79A17.43,17.43,0,0,1,33.32,44,13.52,13.52,0,0,0,25,42.22c-1.78.33-3.11,1.33-3.28,2.76-.48,3.91,13.49.24,12.16,11.17C33,63,27.59,68.18,20.31,69.54" transform="translate(-7 -1.8)"/><path id="Fill-128" class="cls-12" d="M54.32,57.42c-.41,3.39-4.5,6.63-8.76,7.42C37.43,66.35,34,61.77,34.88,54.46A17.81,17.81,0,0,1,48.79,39.27c5.32-1,8,1.27,7.63,4.27-.22,1.87-1.6,4-4.29,5.89-.6-2.27-1.77-3.26-3.64-2.92-2.38.45-4.21,2.84-4.6,6s.87,5.16,3.81,4.61a12.71,12.71,0,0,0,6.23-3.35,8.32,8.32,0,0,1,.39,3.61" transform="translate(-7 -1.8)"/><path id="Fill-130" class="cls-12" d="M66.4,48.4l-1,8.36c-.33,2.67-1.49,4-3.87,4.45l-5.41,1,1.94-15.95c.47-3.86.07-5.05-1.74-5.18A9.17,9.17,0,0,1,62,36.81c2.68-.5,4.38.25,4.89,2.86,1.6-2.58,4-4.51,5.75-4.85s3.21.62,2.85,3.63a18.7,18.7,0,0,1-1.59,5.19,6.44,6.44,0,0,0-3.18-.2,5.3,5.3,0,0,0-4.35,5" transform="translate(-7 -1.8)"/><path id="Fill-132" class="cls-12" d="M77.17,42.71c.46-3.86.07-5.05-1.75-5.18a9.16,9.16,0,0,1,5.72-4.28c3.75-.7,5.67,1,4.94,7l-.77,6.35c-.31,2.53.39,3.62,1.8,3.35s2.72-2.18,3.08-5.14l1.56-12.84,5.41-1c2.38-.45,3.26.51,2.94,3.18L98.62,46.23c-.47,3.87-.07,5.05,1.75,5.18a9.23,9.23,0,0,1-5.73,4.29c-2.51.47-4.19-.11-4.83-2.32a12.9,12.9,0,0,1-7.08,4.54c-5,.93-7.11-2.5-6.34-8.81Z" transform="translate(-7 -1.8)"/><path id="Fill-134" class="cls-12" d="M115.63,39.09c.4-3.29-.51-5.36-2.85-4.92a6.62,6.62,0,0,0-2.59,1.08l-.78,6.4c-.33,2.77.64,4,2.43,3.65,2-.38,3.39-2.87,3.79-6.21m9-2.15C123.59,45.87,117,51.53,111,52.64c-6.94,1.29-11.25-2.57-10.28-10.59l1.88-15.42c.47-3.87.07-5.05-1.75-5.18a9.23,9.23,0,0,1,5.73-4.29c3.74-.69,5.66,1,4.93,7l-.61,5.06a13,13,0,0,1,5.46-2.51c5.75-1.07,9.23,2.48,8.28,10.26" transform="translate(-7 -1.8)"/><g id="Group-166"><path id="Fill-136" class="cls-13" d="M100.17,51.77a3.61,3.61,0,0,0,.23-.36l-.37,0a3.93,3.93,0,0,0,.14.41" transform="translate(-7 -1.8)"/><path id="Fill-138" class="cls-13" d="M23.64,57.34c-.54-2.32-6.52-1.61-9.9-4.16,2.26,3.19,7.49,3.07,9.9,4.16" transform="translate(-7 -1.8)"/><path id="Fill-140" class="cls-13" d="M31.59,49.54a7.28,7.28,0,0,1,1.07,5.37c-.83,6.82-6.25,12-13.53,13.39-3.87.72-6.56.61-8.14-.34,1.12,2,4.19,2.54,9.36,1.58,7.28-1.36,12.7-6.57,13.53-13.39.41-3.39-.65-5.37-2.29-6.61" transform="translate(-7 -1.8)"/><path id="Fill-142" class="cls-13" d="M33.06,34.8A5.25,5.25,0,0,1,33.5,38a17.35,17.35,0,0,1-1.36,4.73A13.46,13.46,0,0,0,23.78,41c-1.79.33-3.11,1.32-3.29,2.76-.09.78.4,1.26,1.23,1.61a1.57,1.57,0,0,1,0-.38c.18-1.43,1.5-2.42,3.29-2.75A13.45,13.45,0,0,1,33.36,44a17.43,17.43,0,0,0,1.37-4.73q.39-3.23-1.67-4.44" transform="translate(-7 -1.8)"/><path id="Fill-144" class="cls-13" d="M44.31,55.73a5.59,5.59,0,0,1-.38-3.18c.39-3.2,2.22-5.59,4.6-6a2.93,2.93,0,0,1,1.84.19,2.64,2.64,0,0,0-3.06-1.43c-2.39.45-4.22,2.84-4.6,6-.26,2.13.26,3.79,1.6,4.42" transform="translate(-7 -1.8)"/><path id="Fill-146" class="cls-13" d="M54.77,39.9a3.75,3.75,0,0,1,.47,2.4C55,44,53.82,46,51.5,47.78a6,6,0,0,1,.67,1.65c2.69-1.9,4.07-4,4.29-5.89a3.58,3.58,0,0,0-1.69-3.64" transform="translate(-7 -1.8)"/><path id="Fill-148" class="cls-13" d="M53.15,54.52a7.66,7.66,0,0,1,0,1.66c-.41,3.39-4.51,6.62-8.77,7.42-3.53.65-6.17.16-8-1.21,1.7,2.27,4.74,3.27,9.19,2.45,4.25-.8,8.35-4,8.76-7.42A8.47,8.47,0,0,0,54,53.81c-.26.25-.54.48-.82.71" transform="translate(-7 -1.8)"/><path id="Fill-150" class="cls-13" d="M74.17,34.88a5,5,0,0,1,.16,2.32,18.62,18.62,0,0,1-1.58,5.2,6.45,6.45,0,0,0-3.18-.2,5.29,5.29,0,0,0-4.35,5l-1,8.36c-.32,2.67-1.48,4-3.87,4.45l-4,.75-.18,1.5,5.41-1c2.38-.44,3.54-1.78,3.87-4.45l1-8.36a5.29,5.29,0,0,1,4.35-5,6.45,6.45,0,0,1,3.18.2,18.72,18.72,0,0,0,1.58-5.2c.27-2.12-.35-3.22-1.38-3.56" transform="translate(-7 -1.8)"/><path id="Fill-152" class="cls-13" d="M84.9,39l-.78,6.35c-.26,2.18.23,3.29,1.27,3.38a6.15,6.15,0,0,1,0-2.14l.77-6.35c.47-3.86-.17-5.92-1.69-6.72.6,1.14.78,2.91.47,5.48" transform="translate(-7 -1.8)"/><path id="Fill-154" class="cls-13" d="M98.91,32.86,97.44,45c-.42,3.45-.15,4.77,1.2,5.1a10.75,10.75,0,0,1,0-3.85l1.47-12.13c.24-1.91-.15-2.94-1.27-3.21a5.19,5.19,0,0,1,0,2" transform="translate(-7 -1.8)"/><path id="Fill-156" class="cls-13" d="M88.62,52.13a12.75,12.75,0,0,1-7.08,4.54,5.57,5.57,0,0,1-4.18-.57c1,1.61,2.85,2.29,5.4,1.81a12.57,12.57,0,0,0,6.76-4.17,3.58,3.58,0,0,1-.9-1.61" transform="translate(-7 -1.8)"/><path id="Fill-158" class="cls-13" d="M98.88,50.65a9.18,9.18,0,0,1-5.42,3.8,5.1,5.1,0,0,1-3.27-.23c.8,1.51,2.34,1.87,4.49,1.47a9.17,9.17,0,0,0,5.72-4.28,1.79,1.79,0,0,1-1.52-.76" transform="translate(-7 -1.8)"/><path id="Fill-160" class="cls-13" d="M109.58,44.05a5.62,5.62,0,0,1-.13-2.4l.78-6.4a6.81,6.81,0,0,1,2.59-1.09,2.6,2.6,0,0,1,1.35.08,2.14,2.14,0,0,0-2.58-1.32A6.83,6.83,0,0,0,109,34l-.78,6.4c-.26,2.15.27,3.36,1.35,3.64" transform="translate(-7 -1.8)"/><path id="Fill-162" class="cls-13" d="M110.36,22.89,109.74,28c.5-.37,1-.7,1.5-1l.34-2.82c.47-3.86-.17-5.93-1.69-6.72.6,1.14.78,2.91.47,5.48" transform="translate(-7 -1.8)"/><path id="Fill-164" class="cls-13" d="M122.14,27.64c1.26,1.75,1.79,4.44,1.35,8.06-1.08,8.93-7.68,14.59-13.64,15.7-3.12.58-5.7.12-7.52-1.29,1.77,2.35,4.84,3.26,8.74,2.53,6-1.11,12.56-6.77,13.64-15.7.57-4.63-.45-7.75-2.57-9.3" transform="translate(-7 -1.8)"/></g><path id="Fill-167" class="cls-14" d="M11.71,66.18a17.17,17.17,0,0,1,1.41-4.74A15,15,0,0,0,22.37,63c2-.38,3.51-1.21,3.68-2.59a1.7,1.7,0,0,0-1.22-1.82,1.71,1.71,0,0,1,0,.56c-.17,1.39-1.65,2.22-3.69,2.6a15,15,0,0,1-9.25-1.58,17.17,17.17,0,0,0-1.41,4.74c-.24,2,.29,3.43,1.61,4.25a5,5,0,0,1-.41-3" transform="translate(-7 -1.8)"/><path id="Fill-169" class="cls-14" d="M22.87,46.58c.28,2.29,6.5,1.56,10,4.28-2.29-3.29-7.59-3.24-10-4.28" transform="translate(-7 -1.8)"/><path id="Fill-171" class="cls-14" d="M14.85,54.37a7.25,7.25,0,0,1-1-5.16A15.82,15.82,0,0,1,27,35.7c3.39-.63,5.79-.5,7.25.39-1.05-2-3.84-2.5-8.45-1.64A15.82,15.82,0,0,0,12.7,48c-.4,3.28.59,5.2,2.15,6.41" transform="translate(-7 -1.8)"/><path id="Fill-173" class="cls-14" d="M48.89,58.41a12.38,12.38,0,0,0,5.45-2.66,9.11,9.11,0,0,0-.41-1.94,12.71,12.71,0,0,1-6.23,3.35A3.55,3.55,0,0,1,45.45,57c.57,1.18,1.71,1.78,3.44,1.46" transform="translate(-7 -1.8)"/><path id="Fill-175" class="cls-14" d="M36.07,55.71A17.83,17.83,0,0,1,50,40.52c2.7-.5,4.71-.16,6,.68-1-1.69-3.4-2.63-7.19-1.93A17.81,17.81,0,0,0,34.88,54.46c-.5,4.08.36,7.32,2.63,9.11-1.36-1.88-1.84-4.59-1.44-7.86" transform="translate(-7 -1.8)"/><path id="Fill-177" class="cls-14" d="M68.12,40.93c1.6-2.59,4-4.52,5.74-4.86a3,3,0,0,1,1.5.07,2.14,2.14,0,0,0-2.69-1.32c-1.64.31-3.76,2-5.34,4.24a4.3,4.3,0,0,1,.79,1.87" transform="translate(-7 -1.8)"/><path id="Fill-179" class="cls-14" d="M59.24,47.52c.42-3.41.16-4.74-1.16-5.09a11,11,0,0,1,0,3.84L56.11,62.22,57.49,62Z" transform="translate(-7 -1.8)"/><path id="Fill-181" class="cls-14" d="M57.82,41.84a9.12,9.12,0,0,1,5.4-3.78,4.85,4.85,0,0,1,3.24.26c-.78-1.51-2.29-1.91-4.43-1.51a9.17,9.17,0,0,0-5.72,4.28,1.78,1.78,0,0,1,1.51.75" transform="translate(-7 -1.8)"/><path id="Fill-183" class="cls-14" d="M86.54,49.94a1.39,1.39,0,0,0,1.76,1.22C89.71,50.9,91,49,91.38,46l1.56-12.85,5.41-1a3.9,3.9,0,0,1,1.7,0c-.3-1.17-1.23-1.54-2.9-1.23l-5.4,1L90.19,44.77c-.36,2.95-1.68,4.88-3.08,5.14a1.87,1.87,0,0,1-.57,0" transform="translate(-7 -1.8)"/><path id="Fill-185" class="cls-14" d="M77.58,50.36l.78-6.4c.41-3.41.15-4.74-1.17-5.09a11,11,0,0,1,0,3.84l-.78,6.4c-.49,4.06.22,6.91,2.11,8.19-1-1.53-1.29-3.9-.92-6.94" transform="translate(-7 -1.8)"/><path id="Fill-187" class="cls-14" d="M76.94,38.28a9.06,9.06,0,0,1,5.4-3.78,5,5,0,0,1,3.29.26c-.8-1.52-2.34-1.91-4.49-1.52a9.21,9.21,0,0,0-5.72,4.29,1.79,1.79,0,0,1,1.52.75" transform="translate(-7 -1.8)"/><path id="Fill-189" class="cls-14" d="M113,46.55c2-.38,3.38-2.87,3.79-6.21.31-2.53-.17-4.34-1.47-4.84a7.27,7.27,0,0,1,.27,3.59c-.4,3.34-1.75,5.83-3.79,6.21a2.38,2.38,0,0,1-1.1,0,1.8,1.8,0,0,0,2.3,1.27" transform="translate(-7 -1.8)"/><path id="Fill-191" class="cls-14" d="M112.12,30.44a13.05,13.05,0,0,1,5.47-2.51,7.16,7.16,0,0,1,5.78,1c-1.44-2.06-3.87-2.84-7-2.26a12.22,12.22,0,0,0-4,1.53Z" transform="translate(-7 -1.8)"/><path id="Fill-193" class="cls-14" d="M102,43.3l1.87-15.42c.42-3.42.15-4.74-1.17-5.09a11,11,0,0,1,0,3.84l-1.88,15.42c-.53,4.36.51,7.5,2.68,9.24-1.33-1.83-1.9-4.52-1.48-8" transform="translate(-7 -1.8)"/><path id="Fill-195" class="cls-14" d="M102.4,22.19a9.17,9.17,0,0,1,5.4-3.78,5,5,0,0,1,3.29.27c-.8-1.52-2.34-1.92-4.48-1.52a9.23,9.23,0,0,0-5.73,4.29,1.8,1.8,0,0,1,1.52.74" transform="translate(-7 -1.8)"/><path id="Fill-197" class="cls-4" d="M172.19,79.65h.24c.27,0,.4-.08.4-.28s-.14-.3-.43-.3h-.21v.58Zm.3-.89c.56,0,.84.2.84.58a.53.53,0,0,1-.43.53l.44.89h-.54l-.37-.82h-.24v.82h-.48v-2Zm-1.07,0a1.52,1.52,0,0,0-.45,1.07,1.51,1.51,0,0,0,.43,1.06,1.46,1.46,0,0,0,1,.45,1.53,1.53,0,0,0,1.05-.44,1.45,1.45,0,0,0,.44-1,1.51,1.51,0,0,0-.43-1.09,1.4,1.4,0,0,0-1.06-.45A1.42,1.42,0,0,0,171.42,78.72Zm2.3-.19a1.81,1.81,0,0,1,.51,1.27,1.79,1.79,0,0,1-1.78,1.8,1.7,1.7,0,0,1-1.26-.55,1.74,1.74,0,0,1-.51-1.25,1.81,1.81,0,0,1,.26-.94,1.72,1.72,0,0,1,1.51-.87A1.74,1.74,0,0,1,173.72,78.53Z" transform="translate(-7 -1.8)"/><path id="Fill-199" class="cls-4" d="M178.51,38.59h.21c.25,0,.36-.08.36-.26s-.12-.27-.38-.27h-.19Zm.26-.8c.51,0,.76.17.76.52a.48.48,0,0,1-.39.47l.4.81h-.48l-.34-.74h-.21v.74h-.43v-1.8Zm-1,0a1.37,1.37,0,0,0-.4,1,1.35,1.35,0,0,0,1.33,1.35,1.39,1.39,0,0,0,.95-.39,1.38,1.38,0,0,0,0-1.91,1.3,1.3,0,0,0-1-.41A1.25,1.25,0,0,0,177.81,37.75Zm2.07-.17a1.62,1.62,0,0,1-1.14,2.76,1.57,1.57,0,0,1-1.14-.49,1.61,1.61,0,0,1-.22-2,1.53,1.53,0,0,1,1.36-.78A1.56,1.56,0,0,1,179.88,37.58Z" transform="translate(-7 -1.8)"/></g><path id="Fill-1-3" data-name="Fill-1" class="cls-4" d="M25,255.07a8.94,8.94,0,0,1-17.87,0,8.83,8.83,0,0,1,2-5.58L7,247.39,14,246l-1.39,7-2.12-2.12A7,7,0,1,0,19.55,249v-2.14A8.94,8.94,0,0,1,25,255.07" transform="translate(-7 -1.8)"/><g id="Group-5"><path id="Combined-Shape-2" data-name="Combined-Shape" class="cls-4" d="M19,275.81l9.49-9.45,2.11,2.13L21.05,278l9.52,9.48-2.11,2.13L19,280.13l-9.49,9.45-2.12-2.13L16.88,278l-9.52-9.48,2.12-2.13Z" transform="translate(-7 -1.8)"/></g><polygon id="Path-2" class="cls-4" points="37.06 244.2 40 246.83 28.03 260.2 21 253.28 23.77 250.47 27.85 254.48 37.06 244.2"/><g id="Group"><path id="Combined-Shape-3" data-name="Combined-Shape" class="cls-4" d="M46,278h0L35,290l-2-1.87L42.26,278,33,267.87,35,266Z" transform="translate(-7 -1.8)"/></g><circle id="Oval-4" class="cls-4" cx="15" cy="305.2" r="15"/><circle id="Oval-4-Copy" class="cls-4" cx="47" cy="305.2" r="15"/><polygon id="Triangle" class="cls-1" points="22 305.7 11 312.2 11 299.2 22 305.7"/><circle id="Oval-4-Copy-2" class="cls-4" cx="79" cy="305.2" r="15"/><g id="Group-2" data-name="Group"><path id="Stroke-1" class="cls-1" d="M47.64,315a.66.66,0,0,1-.64-.67V299.67a.66.66,0,0,1,.64-.67H60.36a.66.66,0,0,1,.64.67v14.66a.66.66,0,0,1-.64.67Z" transform="translate(-7 -1.8)"/><polygon id="Fill-3-2" data-name="Fill-3" class="cls-4" points="42 301.2 44 301.2 44 299.2 42 299.2 42 301.2"/><polygon id="Fill-5-2" data-name="Fill-5" class="cls-4" points="46 301.08 52 301.08 52 299.2 46 299.2 46 301.08"/><polygon id="Fill-5-Copy" class="cls-4" points="42 305.08 52 305.08 52 303.2 42 303.2 42 305.08"/><polygon id="Fill-5-Copy-2" class="cls-4" points="42 309.2 51 309.2 51 307.2 42 307.2 42 309.2"/></g><g id="Group-2-2" data-name="Group-2"><g id="Group-3-3" data-name="Group"><path id="Fill-1-4" data-name="Fill-1" class="cls-1" d="M86,313.1c0,.87-.77,1.21-1.54.57l-3-3.11H78.77a.72.72,0,0,1-.77-.64v-5.84a.72.72,0,0,1,.77-.64h2.64l3.07-3.13c.67-.56,1.52-.35,1.52.47Z" transform="translate(-7 -1.8)"/><path id="Oval" class="cls-15" d="M88,313a6,6,0,0,0,0-12" transform="translate(-7 -1.8)"/><path id="Oval-5" class="cls-15" d="M88,310a3,3,0,0,0,0-6" transform="translate(-7 -1.8)"/></g></g><g id="Group-4"><path id="Oval-2" class="cls-4" d="M21,340a8,8,0,1,1,8-8A8,8,0,0,1,21,340Zm0-3a5,5,0,1,0-5-5A5,5,0,0,0,21,337Z" transform="translate(-7 -1.8)"/><polygon id="Line-2" class="cls-4" points="9.14 333.2 11.26 335.32 2.12 344.46 0 342.34 9.14 333.2"/></g><path id="f-2" data-name="f" class="cls-1" d="M19,353.91H17.29c-.21,0-.43.27-.43.64v1.26H19v1.8H16.86V363h-2v-5.4H13v-1.79h1.83v-1.06A2.58,2.58,0,0,1,17.29,352H19Z" transform="translate(-7 -1.8)"/><path id="Shape-2" data-name="Shape" class="cls-1" d="M41.6,354.44v.33A7.55,7.55,0,0,1,30,360.82h.61A5.84,5.84,0,0,0,34,359.73,2.63,2.63,0,0,1,31.49,358c.18,0,.36.08.53.08a2.1,2.1,0,0,0,.7-.08,2.56,2.56,0,0,1-2.1-2.52h0a3.07,3.07,0,0,0,1.23.33,2.47,2.47,0,0,1-1.15-2.1,1.94,1.94,0,0,1,.36-1.26,8,8,0,0,0,5.44,2.69,1.35,1.35,0,0,1-.09-.59A2.64,2.64,0,0,1,41,352.84a5.53,5.53,0,0,0,1.67-.59,2.72,2.72,0,0,1-1.14,1.43,4.34,4.34,0,0,0,1.49-.42c-.44.34-.88.84-1.4,1.18" transform="translate(-7 -1.8)"/><g id="Group-6-2" data-name="Group-6"><path id="Shape-3" data-name="Shape" class="cls-1" d="M73.3,362.59a5.3,5.3,0,1,1,0-10.59,5.08,5.08,0,0,1,3.58,1.38l-1.47,1.39A2.82,2.82,0,0,0,73.3,354a3.34,3.34,0,0,0,0,6.68,2.93,2.93,0,0,0,3-2.28h-3v-1.8h5a3.14,3.14,0,0,1,.08.9A4.86,4.86,0,0,1,73.3,362.59Z" transform="translate(-7 -1.8)"/><polygon id="Shape-4" data-name="Shape" class="cls-1" points="77.56 357.22 76.1 357.22 76.1 358.76 74.55 358.76 74.55 357.22 73 357.22 73 355.75 74.55 355.75 74.55 354.2 76.1 354.2 76.1 355.75 77.56 355.75 77.56 357.22"/></g><path id="Fill-1-5" data-name="Fill-1" class="cls-1" d="M118.41,356.94l3.45,3.64-4.21-3.1L116,358.59l-1.65-1.11-4.21,3.1,3.45-3.64-4.17-3.36,6.58,3.66,6.58-3.66Zm-7.8-4.94a1.64,1.64,0,0,0-1.61,1.67v6.66a1.64,1.64,0,0,0,1.61,1.67h10.77a1.64,1.64,0,0,0,1.62-1.67v-6.66a1.64,1.64,0,0,0-1.62-1.67Z" transform="translate(-7 -1.8)"/><path id="Shape-5" data-name="Shape" class="cls-1" d="M51.46,351a1.28,1.28,0,1,0,0,2.54c.94,0,1.45-.51,1.45-1.27A1.35,1.35,0,0,0,51.46,351Zm-1.2,11.83h2.31v-8.2H50.26Zm8.91-8.45a3.3,3.3,0,0,0-2.66,1.18l-.17-.84H54.29v8.2H56.6V358a1.15,1.15,0,0,1,.08-.59,1.71,1.71,0,0,1,1.46-.93c1,0,1.54.68,1.54,1.78V363H62v-5.07C62,355.39,60.8,354.38,59.17,354.38Z" transform="translate(-7 -1.8)"/><path id="Pinterest-3" data-name="Pinterest" class="cls-1" d="M96,350a7,7,0,0,0-2.81,13.41,6.41,6.41,0,0,1,.12-1.61c.14-.56.9-3.81.9-3.81a2.75,2.75,0,0,1-.22-1.11c0-1,.6-1.81,1.35-1.81a.93.93,0,0,1,.94,1.05,15.08,15.08,0,0,1-.61,2.49,1.07,1.07,0,0,0,1.1,1.34c1.33,0,2.22-1.7,2.22-3.72a2.62,2.62,0,0,0-2.91-2.68,3.31,3.31,0,0,0-3.45,3.35,2,2,0,0,0,.46,1.37.35.35,0,0,1,.1.4l-.14.56a.24.24,0,0,1-.35.17,2.69,2.69,0,0,1-1.43-2.67c0-2,1.67-4.37,5-4.37a4.18,4.18,0,0,1,4.43,4c0,2.74-1.53,4.79-3.78,4.79a2,2,0,0,1-1.71-.87s-.4,1.61-.49,1.93a6.1,6.1,0,0,1-.7,1.5,7.18,7.18,0,0,0,2,.28,7,7,0,0,0,0-14" transform="translate(-7 -1.8)"/><polygon id="Rectangle-16-Copy" class="cls-4" points="37.39 323.52 31 332.69 24.61 323.52 37.39 323.52"/></g><g class="cls-16"><rect class="cls-1" x="47.36" y="163.29" width="43.94" height="31.96"/><rect class="cls-17" x="47.36" y="166.29" width="43.94" height="5.61"/><rect class="cls-17" x="47.36" y="186.72" width="43.94" height="5.54"/><polygon id="triangle-2" data-name="triangle" class="cls-18" points="69.33 173.45 64.29 182.18 74.37 182.18 69.33 173.45"/><polygon id="triangle-3" data-name="triangle" class="cls-18" points="69.33 185.09 74.37 176.36 64.29 176.36 69.33 185.09"/></g></svg>